<svg width="960" height="960" viewBox="0 0 960 960" fill="none" xmlns="http://www.w3.org/2000/svg">
    <path fill-rule="evenodd" clip-rule="evenodd"
          d="M204.7 0C150.41 0 98.3439 21.5665 59.9553 59.9552C21.5666 98.3439 0 150.41 0 204.7V960H755.3C782.182 960 808.8 954.705 833.635 944.418C858.471 934.131 881.037 919.053 900.045 900.045C919.053 881.037 934.131 858.471 944.418 833.635C954.705 808.8 960 782.182 960 755.3V0H204.7ZM206 295.4C188.061 295.4 170.525 290.081 155.61 280.114C140.694 270.148 129.069 255.983 122.204 239.409C115.339 222.836 113.543 204.599 117.043 187.005C120.542 169.411 129.181 153.25 141.865 140.565C154.55 127.881 170.711 119.242 188.305 115.743C205.899 112.243 224.136 114.039 240.709 120.904C257.283 127.769 271.448 139.394 281.414 154.31C291.381 169.225 296.7 186.761 296.7 204.7C296.7 228.755 287.144 251.825 270.135 268.835C253.125 285.844 230.055 295.4 206 295.4V295.4ZM481.3 846C463.361 846 445.825 840.681 430.91 830.714C415.994 820.748 404.369 806.583 397.504 790.009C390.639 773.436 388.843 755.199 392.343 737.605C395.842 720.011 404.481 703.85 417.165 691.165C429.85 678.481 446.011 669.842 463.605 666.343C481.199 662.843 499.436 664.639 516.009 671.504C532.583 678.369 546.748 689.994 556.714 704.91C566.681 719.825 572 737.361 572 755.3C572 779.355 562.444 802.425 545.435 819.435C528.425 836.444 505.355 846 481.3 846ZM481.3 570.7C463.361 570.7 445.825 565.381 430.91 555.414C415.994 545.448 404.369 531.283 397.504 514.709C390.639 498.136 388.843 479.899 392.343 462.305C395.842 444.711 404.481 428.55 417.165 415.865C429.85 403.181 446.011 394.542 463.605 391.043C481.199 387.543 499.436 389.339 516.009 396.204C532.583 403.069 546.748 414.694 556.714 429.61C566.681 444.525 572 462.061 572 480C572 504.055 562.444 527.125 545.435 544.135C528.425 561.144 505.355 570.7 481.3 570.7V570.7ZM481.3 295.4C463.361 295.4 445.825 290.081 430.91 280.114C415.994 270.148 404.369 255.983 397.504 239.409C390.639 222.836 388.843 204.599 392.343 187.005C395.842 169.411 404.481 153.25 417.165 140.565C429.85 127.881 446.011 119.242 463.605 115.743C481.199 112.243 499.436 114.039 516.009 120.904C532.583 127.769 546.748 139.394 556.714 154.31C566.681 169.225 572 186.761 572 204.7C572 216.611 569.654 228.405 565.096 239.409C560.538 250.414 553.857 260.412 545.435 268.835C537.012 277.257 527.014 283.938 516.009 288.496C505.005 293.054 493.211 295.4 481.3 295.4V295.4ZM756.6 846C738.661 846 721.125 840.681 706.21 830.714C691.294 820.748 679.669 806.583 672.804 790.009C665.939 773.436 664.143 755.199 667.643 737.605C671.142 720.011 679.781 703.85 692.465 691.165C705.15 678.481 721.311 669.842 738.905 666.343C756.499 662.843 774.736 664.639 791.309 671.504C807.883 678.369 822.048 689.994 832.014 704.91C841.981 719.825 847.3 737.361 847.3 755.3C847.3 779.355 837.744 802.425 820.735 819.435C803.725 836.444 780.655 846 756.6 846ZM756.6 295.4C738.661 295.4 721.125 290.081 706.21 280.114C691.294 270.148 679.669 255.983 672.804 239.409C665.939 222.836 664.143 204.599 667.643 187.005C671.142 169.411 679.781 153.25 692.465 140.565C705.15 127.881 721.311 119.242 738.905 115.743C756.499 112.243 774.736 114.039 791.309 120.904C807.883 127.769 822.048 139.394 832.014 154.31C841.981 169.225 847.3 186.761 847.3 204.7C847.3 216.611 844.954 228.405 840.396 239.409C835.838 250.414 829.157 260.412 820.735 268.835C812.312 277.257 802.314 283.938 791.309 288.496C780.305 293.054 768.511 295.4 756.6 295.4V295.4Z"
          fill="#227BDD"/>
</svg>
